<?xml version="1.0" encoding="UTF-8" standalone="no"?>
<!-- Created with Inkscape (http://www.inkscape.org/) -->

<svg
   version="1.1"
   id="svg1864"
   width="370.41666mm"
   height="264.58334mm"
   viewBox="0 0 370.41666 264.58335"
   sodipodi:docname="costy.svg"
   inkscape:version="1.2.2 (732a01da63, 2022-12-09)"
   xmlns:inkscape="http://www.inkscape.org/namespaces/inkscape"
   xmlns:sodipodi="http://sodipodi.sourceforge.net/DTD/sodipodi-0.dtd"
   xmlns="http://www.w3.org/2000/svg"
   xmlns:svg="http://www.w3.org/2000/svg">
  <defs
     id="defs1868">
    <rect
       x="100.33624"
       y="125.4203"
       width="761.64326"
       height="611.13891"
       id="rect444" />
    <rect
       x="182.42952"
       y="355.73757"
       width="410.46643"
       height="246.27986"
       id="rect344" />
  </defs>
  <sodipodi:namedview
     id="namedview1866"
     pagecolor="#ffffff"
     bordercolor="#000000"
     borderopacity="0.25"
     inkscape:showpageshadow="2"
     inkscape:pageopacity="0.0"
     inkscape:pagecheckerboard="0"
     inkscape:deskcolor="#d1d1d1"
     showgrid="false"
     inkscape:zoom="0.43852551"
     inkscape:cx="273.64429"
     inkscape:cy="379.68145"
     inkscape:window-width="1920"
     inkscape:window-height="1001"
     inkscape:window-x="-9"
     inkscape:window-y="-9"
     inkscape:window-maximized="1"
     inkscape:current-layer="svg1864"
     inkscape:document-units="mm" />
  <g
     inkscape:groupmode="layer"
     inkscape:label="Image"
     id="g1870">
    <rect
       style="fill:#ffffff;stroke-width:26.4567;stroke-linecap:round"
       id="rect2650"
       width="37.795273"
       height="37.795273"
       x="259.21375"
       y="761.67078" />
    <rect
       style="fill:#800000;stroke-width:26.4567;stroke-linecap:round"
       id="rect2652"
       width="37.795273"
       height="37.795273"
       x="492.62897"
       y="729.72974" />
  </g>
  <inkscape:templateinfo>
    <inkscape:name>costy</inkscape:name>
    <inkscape:date>2023-12-11</inkscape:date>
  </inkscape:templateinfo>
  <g
     aria-label="AAA"
     id="text442"
     style="font-size:96px;font-family:'Le chant des Albatros';-inkscape-font-specification:'Le chant des Albatros';white-space:pre;shape-inside:url(#rect444);fill:#ff0000;stroke-width:32;stroke-linecap:round"
     transform="matrix(1.1629039,0,0,1.1236863,-6.8274223,0)">
    <path
       id="path452"
       style="stroke-width:49.6335"
       d="m 287.16031,125.61795 q 0,0.21093 -0.52558,0.21093 -0.52559,0 -1.15628,0 -0.73582,4.85119 -1.05117,8.01502 -0.31534,2.9529 -0.63069,7.17134 -0.42047,5.69488 -0.73582,9.28057 -0.31535,3.58566 -0.52558,6.53857 -0.21023,2.9529 -0.31535,6.11673 -0.10511,2.9529 -0.10511,7.59318 0,10.54608 1.57675,16.24098 1.68186,5.69488 4.41487,8.01502 1.15628,1.26553 1.15628,2.10922 0,0.84368 -0.94604,1.68737 -0.84093,0.84368 -1.68186,0.84368 -7.56838,0 -11.03721,-11.17885 -3.46884,-10.96793 -3.46884,-30.79456 0,-8.43688 0.31535,-14.34269 0.42046,-6.11673 1.26139,-13.07715 -1.47163,0.84369 -4.20465,2.10922 -2.62791,1.05461 -5.46605,2.10922 -2.73303,0.84368 -5.04558,1.68737 -2.31256,0.84368 -2.94325,1.05461 -1.26141,0.42184 -2.20745,0.84368 -0.94605,0.42185 -1.05116,0.63277 0,0.21092 -1.2614,4.00752 -1.2614,3.79659 -2.94326,8.64779 -1.68186,4.8512 -3.46883,9.91332 -1.68186,4.8512 -2.62791,7.17134 -6.51721,16.24097 -11.98326,23.41231 -5.36093,7.38227 -11.45767,7.38227 -4.62513,0 -8.09396,-3.16383 -3.36373,-3.16383 -5.67628,-8.85871 -2.20745,-5.69489 -3.36373,-13.28807 -1.05116,-7.59319 -1.05116,-16.4519 0,-14.34269 2.31256,-28.26352 2.41767,-14.13175 6.51721,-25.09968 4.09954,-10.967941 9.56558,-17.717431 5.57117,-6.749493 11.98327,-6.749493 2.10232,0 4.62511,1.265528 2.52279,1.05461 4.62512,3.796593 2.20744,2.531062 3.67907,7.171342 1.47163,4.42935 1.47163,11.178851 0,4.8512 -1.15628,7.8041 -1.05116,2.95291 -2.52279,4.64028 -1.47163,1.68738 -2.94326,2.32014 -1.47163,0.63276 -2.10232,0.63276 h -0.42047 v -0.21091 q 2.10233,-2.95291 3.36372,-6.96042 1.2614,-4.00752 1.2614,-8.85872 0,-4.640271 -0.73582,-7.804101 -0.73581,-3.16383 -1.78697,-5.06212 -1.05117,-2.10922 -2.31256,-2.95291 -1.15628,-1.0546 -2.10233,-1.0546 -2.10232,0 -4.41488,2.32014 -2.20745,2.10922 -4.41489,5.69488 -3.78418,5.90581 -6.72744,13.920831 -2.83814,7.80411 -4.83535,16.66282 -1.8921,8.85871 -2.94326,18.13927 -0.94605,9.28057 -0.94605,18.13928 0,17.08465 2.62791,24.46692 2.62791,7.38226 6.62233,7.38226 3.25861,0 7.04279,-4.21844 3.78418,-4.21843 7.56838,-11.60069 3.8893,-7.17134 7.46325,-16.4519 3.57396,-9.49147 6.4121,-20.03757 l -0.42047,0.63277 h -4.30977 q -2.10232,0 -5.36093,-0.42185 -3.15349,-0.63276 -6.20186,-2.10922 -3.04838,-1.68737 -5.36093,-4.85119 -2.20745,-3.16383 -2.20745,-8.43688 0,-1.47644 0.42047,-1.47644 -0.52558,0 0.6307,0.84368 1.15628,0.84369 3.15349,1.8983 2.10233,1.05461 4.62512,1.89829 2.52279,0.84369 4.94046,0.84369 3.57396,0 7.04279,-0.63277 3.57396,-0.84368 7.14791,-1.89829 3.57396,-10.75701 8.09396,-24.256 4.62512,-13.709921 9.6707,-28.052589 5.04558,-14.553603 10.19628,-28.685359 5.25582,-14.131756 10.19629,-25.521528 0.63069,-1.476453 1.78697,-4.007514 1.15628,-2.741982 2.52279,-5.273043 1.36652,-2.53106 2.73303,-4.429356 1.47163,-1.898295 2.62791,-1.898295 0.94604,0 1.9972,1.054608 1.15628,0.843687 2.10233,2.109218 0.94605,1.26553 1.57675,2.741983 0.63069,1.265529 0.63069,2.109217 0,0.210921 -0.10511,0.421843 0,0 0,0.210922 -2.41768,11.178851 -5.25582,24.46692 -2.73302,13.077147 -5.36093,26.997981 -2.62791,13.709913 -4.83535,27.208901 -2.10232,13.288071 -3.36372,24.677851 2.73302,0.42183 4.41488,1.89829 1.68187,1.26553 2.62791,2.74198 0.94604,1.47646 1.2614,2.9529 0.42046,1.26554 0.42046,1.68738 0,1.26553 -0.42046,1.26553 -0.31536,0 -0.84093,-0.42184 -0.42047,-0.63277 -3.1535,-0.63277 -1.26139,0 -2.6279,0.21092 -1.36652,0 -1.47163,0 z m -3.36372,-80.572098 q -1.68186,4.218434 -4.94047,13.288069 -3.15349,9.069633 -7.04279,20.248482 -3.8893,11.178866 -8.09396,23.412317 -4.09954,12.02254 -7.67348,22.3577 l -0.10513,0.42185 q 0.84093,-0.63276 3.15349,-1.26554 2.31257,-0.63276 5.15071,-1.47644 2.94325,-0.84369 5.88651,-1.68738 3.04837,-0.84369 5.25581,-1.8983 0.21024,-2.53105 0.73582,-6.11673 0.52558,-3.79659 1.05116,-8.01502 0.6307,-4.21844 1.2614,-8.436871 0.73581,-4.21843 1.26139,-7.59318 2.94326,-17.928344 4.94047,-28.89628 2.10232,-11.178851 3.46883,-17.295581 1.36652,-6.11673 1.99721,-8.436869 0.63071,-2.320139 0.63071,-2.741983 0,-0.421842 -0.10512,-0.421842 -0.42046,0 -2.10233,3.374747 -1.57674,3.374747 -4.73023,11.178851 z M 193.659,121.70183 q 0,0.21093 -0.52558,0.21093 -0.52559,0 -1.15628,0 -0.73582,4.85119 -1.05117,8.01502 -0.31534,2.9529 -0.63069,7.17134 -0.42047,5.69488 -0.73582,9.28057 -0.31535,3.58566 -0.52558,6.53857 -0.21023,2.9529 -0.31535,6.11673 -0.10511,2.9529 -0.10511,7.59318 0,10.54608 1.57673,16.24097 1.68187,5.69489 4.41489,8.01503 1.15628,1.26552 1.15628,2.10922 0,0.84368 -0.94604,1.68737 -0.84093,0.84368 -1.68186,0.84368 -7.56838,0 -11.03721,-11.17885 -3.46885,-10.96793 -3.46885,-30.79457 0,-8.43687 0.31536,-14.34268 0.42046,-6.11673 1.26139,-13.07715 -1.47163,0.84369 -4.20465,2.10921 -2.62791,1.05461 -5.46605,2.10922 -2.73303,0.84369 -5.04558,1.68738 -2.31256,0.84368 -2.94326,1.05461 -1.2614,0.42184 -2.20744,0.84368 -0.94605,0.42184 -1.05116,0.63276 0,0.21093 -1.2614,4.00752 -1.2614,3.7966 -2.94326,8.6478 -1.68186,4.8512 -3.46883,9.91332 -1.68187,4.8512 -2.62792,7.17134 -6.51721,16.24097 -11.98325,23.41231 -5.36093,7.38226 -11.45768,7.38226 -4.62512,0 -8.09395,-3.16382 -3.36373,-3.16383 -5.67628,-8.85872 -2.20745,-5.69488 -3.36373,-13.28807 -1.05116,-7.59318 -1.05116,-16.45189 0,-14.34269 2.31255,-28.26352 2.41768,-14.13175 6.51722,-25.099691 4.09954,-10.96793 9.56558,-17.717421 5.57117,-6.749489 11.98326,-6.749489 2.10233,0 4.62512,1.265528 2.52279,1.054609 4.62511,3.796587 2.20745,2.531065 3.67907,7.171335 1.47164,4.42936 1.47164,11.17885 0,4.851211 -1.15628,7.804111 -1.05117,2.95291 -2.52279,4.64028 -1.47164,1.68737 -2.94326,2.32014 -1.47163,0.63276 -2.10233,0.63276 h -0.42047 v -0.21092 q 2.10234,-2.95291 3.36373,-6.96042 1.2614,-4.00751 1.2614,-8.858711 0,-4.64027 -0.73582,-7.8041 -0.73582,-3.16383 -1.78697,-5.06212 -1.05117,-2.109222 -2.31257,-2.952913 -1.15628,-1.0546 -2.10232,-1.0546 -2.10233,0 -4.41489,2.320137 -2.20744,2.109216 -4.41488,5.694886 -3.78419,5.90581 -6.72745,13.920831 -2.83813,7.8041 -4.83534,16.66282 -1.8921,8.85871 -2.94327,18.13927 -0.94604,9.28056 -0.94604,18.13928 0,17.08465 2.6279,24.46692 2.62792,7.38225 6.62234,7.38225 3.2586,0 7.04279,-4.21843 3.78418,-4.21843 7.56837,-11.60069 3.8893,-7.17134 7.46326,-16.4519 3.57396,-9.49147 6.4121,-20.03757 l -0.42047,0.63276 h -4.30977 q -2.10233,0 -5.36093,-0.42184 -3.15349,-0.63277 -6.20186,-2.10922 -3.04838,-1.68737 -5.36093,-4.85119 -2.20745,-3.16383 -2.20745,-8.43688 0,-1.47645 0.42047,-1.47645 -0.52558,0 0.6307,0.84369 1.15628,0.84369 3.15348,1.8983 2.10233,1.05461 4.62512,1.89829 2.52279,0.84369 4.94047,0.84369 3.57396,0 7.04279,-0.63277 3.57396,-0.84369 7.14791,-1.89829 3.57396,-10.75701 8.09396,-24.256011 4.62511,-13.70991 9.6707,-28.052574 5.04558,-14.553603 10.19628,-28.685359 5.25582,-14.131755 10.19628,-25.521528 0.6307,-1.476452 1.78698,-4.007513 1.15628,-2.741982 2.52279,-5.273043 1.36651,-2.53106 2.73302,-4.429357 Q 204.90644,0 206.06273,0 q 0.94604,0 1.9972,1.054609 1.15628,0.843686 2.10233,2.109217 0.94604,1.26553 1.57674,2.741983 0.6307,1.265529 0.6307,2.109217 0,0.210921 -0.10511,0.421843 0,0 0,0.210922 -2.41768,11.178851 -5.25582,24.46692 -2.73303,13.077147 -5.36093,26.997981 -2.62791,13.709913 -4.83535,27.208897 -2.10233,13.288071 -3.36372,24.677841 2.73302,0.42184 4.41488,1.8983 1.68186,1.26552 2.62791,2.74198 0.94604,1.47645 1.26139,2.9529 0.42047,1.26554 0.42047,1.68737 0,1.26554 -0.42047,1.26554 -0.31535,0 -0.84093,-0.42184 -0.42046,-0.63277 -3.15349,-0.63277 -1.26139,0 -2.6279,0.21092 -1.36652,0 -1.47163,0 z m -3.36372,-80.572094 q -1.68186,4.218435 -4.94047,13.288069 -3.15349,9.069634 -7.0428,20.248482 -3.8893,11.178852 -8.09395,23.412312 -4.09954,12.022531 -7.67349,22.357701 l -0.10512,0.42185 q 0.84093,-0.63277 3.15349,-1.26554 2.31256,-0.63276 5.1507,-1.47645 2.94326,-0.84369 5.88651,-1.68737 3.04838,-0.84369 5.25582,-1.8983 0.21024,-2.53106 0.73582,-6.11673 0.52557,-3.79659 1.05115,-8.01502 0.63071,-4.218441 1.26141,-8.436871 0.7358,-4.21844 1.26139,-7.593182 2.94326,-17.92834 4.94047,-28.896273 2.10232,-11.178852 3.46883,-17.295582 1.36652,-6.116729 1.99721,-8.436868 0.6307,-2.32014 0.6307,-2.741983 0,-0.421843 -0.10511,-0.421843 -0.42047,0 -2.10233,3.374747 -1.57674,3.374747 -4.73023,11.178851 z M 92.171497,126.17739 q 0,0.21093 -0.525579,0.21093 -0.525579,0 -1.15628,0 -0.735816,4.85119 -1.051159,8.01502 -0.31535,2.9529 -0.630701,7.17134 -0.420465,5.69488 -0.735816,9.28057 -0.315351,3.58566 -0.525579,6.53857 -0.210237,2.9529 -0.315351,6.11673 -0.105114,2.9529 -0.105114,7.59318 0,10.54608 1.576746,16.24098 1.681859,5.69488 4.414886,8.01502 1.156272,1.26552 1.156272,2.10922 0,0.84368 -0.946044,1.68737 Q 92.486848,200 91.645918,200 q -7.568377,0 -11.037212,-11.17885 -3.46884,-10.96793 -3.46884,-30.79457 0,-8.43687 0.315351,-14.34268 0.420465,-6.11673 1.261395,-13.07715 -1.471624,0.84369 -4.20465,2.10922 -2.627912,1.0546 -5.466053,2.10921 -2.733018,0.84369 -5.045579,1.68738 -2.312561,0.84368 -2.943263,1.05461 -1.261391,0.42184 -2.207436,0.84368 -0.946044,0.42185 -1.051166,0.63276 0,0.21093 -1.261395,4.00752 -1.261395,3.7966 -2.943255,8.6478 -1.681859,4.8512 -3.468833,9.91332 -1.681865,4.8512 -2.627912,7.17134 -6.517211,16.24097 -11.983259,23.41231 -5.360932,7.38226 -11.457678,7.38226 -4.625118,0 -8.093956,-3.16382 -3.363722,-3.16383 -5.67628,-8.85872 -2.207443,-5.69488 -3.363722,-13.28807 -1.0511632,-7.59318 -1.0511632,-16.45189 0,-14.34269 2.3125589,-28.26352 2.4176753,-14.13175 6.5172113,-25.09969 4.099536,-10.967931 9.565584,-17.717421 5.571164,-6.749494 11.983259,-6.749494 2.102326,0 4.625118,1.265527 2.522791,1.05461 4.625118,3.796593 2.207442,2.531064 3.679068,7.171334 1.471632,4.42936 1.471632,11.178851 0,4.85121 -1.156281,7.80411 -1.051163,2.95291 -2.522791,4.64028 -1.471628,1.68737 -2.943257,2.32014 -1.471629,0.63276 -2.102326,0.63276 H 41.50544 v -0.21092 q 2.102327,-2.95291 3.363722,-6.96042 1.261396,-4.00751 1.261396,-8.85871 0,-4.640271 -0.735814,-7.804101 -0.735814,-3.16383 -1.786977,-5.06212 -1.051164,-2.10922 -2.312559,-2.95291 -1.156279,-1.0546 -2.102327,-1.0546 -2.102325,0 -4.414884,2.32013 -2.207442,2.10922 -4.414885,5.69489 -3.784188,5.90581 -6.727444,13.920831 -2.83814,7.8041 -4.83535,16.66282 -1.892094,8.85871 -2.943256,18.13927 -0.946048,9.28056 -0.946048,18.13928 0,17.08465 2.627908,24.46692 2.627908,7.38225 6.622328,7.38225 3.258605,0 7.042792,-4.21843 3.784187,-4.21843 7.568374,-11.60069 3.889304,-7.17134 7.463259,-16.4519 3.573956,-9.49147 6.412096,-20.03757 l -0.420465,0.63276 h -4.309771 q -2.102326,0 -5.360932,-0.42184 -3.153488,-0.63277 -6.201861,-2.10922 -3.048373,-1.68737 -5.360932,-4.85119 -2.207442,-3.16383 -2.207442,-8.43688 0,-1.47645 0.420464,-1.47645 -0.525581,0 0.630698,0.84369 1.15628,0.84369 3.15349,1.8983 2.102326,1.05461 4.625117,1.89829 2.522792,0.84369 4.940466,0.84369 3.573955,0 7.042791,-0.63277 3.573956,-0.84368 7.147913,-1.89829 3.573953,-10.75701 8.093953,-24.256 4.625114,-13.709921 9.670702,-28.052583 5.045579,-14.553604 10.19628,-28.685359 5.255817,-14.131756 10.196282,-25.521529 0.630701,-1.476452 1.786974,-4.007513 1.15628,-2.741982 2.522798,-5.273043 1.366504,-2.53106 2.733014,-4.429356 1.47164,-1.898296 2.62792,-1.898296 0.94604,0 1.99721,1.054609 1.15628,0.843687 2.10232,2.109217 0.94605,1.265531 1.57675,2.741983 0.63069,1.26553 0.63069,2.109217 0,0.210921 -0.10511,0.421843 0,0 0,0.210922 -2.41768,11.178852 -5.25582,24.466921 -2.73303,13.077147 -5.36093,26.99798 -2.627904,13.709912 -4.835351,27.208896 -2.102325,13.288071 -3.36372,24.677851 2.733026,0.42183 4.414886,1.89829 1.68186,1.26552 2.627904,2.74198 0.946044,1.47646 1.261391,2.9529 0.42047,1.26554 0.42047,1.68737 0,1.26554 -0.42047,1.26554 -0.315347,0 -0.840926,-0.42184 -0.420465,-0.63277 -3.153491,-0.63277 -1.261395,0 -2.627904,0.21092 -1.366509,0 -1.471632,0 z M 88.807778,45.605298 q -1.68186,4.218434 -4.940465,13.288068 -3.153493,9.069634 -7.04279,20.248477 -3.889307,11.178856 -8.093956,23.412317 -4.099535,12.02253 -7.6735,22.3577 l -0.105114,0.42185 q 0.84093,-0.63277 3.153491,-1.26554 2.312562,-0.63276 5.150702,-1.47644 2.943255,-0.8437 5.886509,-1.68738 3.048377,-0.84369 5.255815,-1.8983 0.210236,-2.53105 0.735815,-6.11673 0.52558,-3.79659 1.051167,-8.01502 0.630693,-4.21844 1.261395,-8.436871 0.735816,-4.21844 1.261395,-7.59318 2.943255,-17.928339 4.940466,-28.896274 2.102325,-11.178852 3.468842,-17.295581 1.366509,-6.11673 1.99721,-8.436869 0.630694,-2.320139 0.630694,-2.741983 0,-0.421843 -0.105114,-0.421843 -0.420465,0 -2.102325,3.374748 -1.576746,3.374747 -4.730237,11.178851 z" />
  </g>
</svg>
